<?xml version="1.0" ?><svg width="64px" height="64px" viewBox="0 0 64 64" data-name="Layer 1" id="Layer_1" xmlns="http://www.w3.org/2000/svg"><title/><path d="M48.5,58.5h-33a2,2,0,0,1-2-2V51a2,2,0,1,1,4,0V54.5h29V21.55l-9.4-12H17.5V40.32a2,2,0,0,1-4,0V7.5a2,2,0,0,1,2-2H38.07a2,2,0,0,1,1.58.77L50.08,19.63a2,2,0,0,1,.42,1.23V56.5A2,2,0,0,1,48.5,58.5Z"/><path d="M39.31,34H24.69a2,2,0,1,1,0-4H39.31a2,2,0,0,1,0,4Z"/><path d="M32,41.31a2,2,0,0,1-2-2V24.69a2,2,0,1,1,4,0V39.31A2,2,0,0,1,32,41.31Z"/></svg>